<?xml version="1.0" encoding="utf-8"?>
<!-- Generator: Adobe Illustrator 25.0.1, SVG Export Plug-In . SVG Version: 6.00 Build 0)  -->
<svg version="1.1" id="Layer_1" xmlns="http://www.w3.org/2000/svg" xmlns:xlink="http://www.w3.org/1999/xlink" x="0px" y="0px"
	 viewBox="0 0 100 100" style="enable-background:new 0 0 100 100;" xml:space="preserve">
<style type="text/css">
	.st0{fill-rule:evenodd;clip-rule:evenodd;fill:#0D47A1;}
</style>
<path class="st0" d="M2.6,35.3h94.7v-4.7L50,7.8L2.6,30.7V35.3L2.6,35.3z M1.5,85.5H8v-40H6.1C5.5,45.5,5,45,5,44.4v-6.9H1.5
	c-0.6,0-1.1-0.5-1.1-1.1V30h0c0-0.4,0.2-0.8,0.6-1L49.5,5.6c0.3-0.1,0.6-0.1,1,0l48.4,23.3c0.4,0.2,0.7,0.6,0.7,1v6.4
	c0,0.6-0.5,1.1-1.1,1.1H95v6.9c0,0.6-0.5,1.1-1.1,1.1H92v40h6.4c0.6,0,1.1,0.5,1.1,1.1v6.8c0,0.6-0.5,1.1-1.1,1.1H1.5
	c-0.6,0-1.1-0.5-1.1-1.1v-6.8C0.5,86,0.9,85.5,1.5,85.5L1.5,85.5z M29.8,37.5v6.9c0,0.6-0.5,1.1-1.1,1.1h-1.9v40h13.7v-40h-1.9
	c-0.6,0-1.1-0.5-1.1-1.1v-6.9H29.8L29.8,37.5z M62.4,37.5v6.9c0,0.6-0.5,1.1-1.1,1.1h-1.9v40h13.7v-40h-1.9c-0.6,0-1.1-0.5-1.1-1.1
	v-6.9H62.4L62.4,37.5z M92.8,37.5H72.4v5.8h20.5V37.5L92.8,37.5z M60.2,37.5H39.8v5.8h20.5V37.5L60.2,37.5z M27.6,37.5H7.2v5.8h20.5
	V37.5L27.6,37.5z M10.2,85.5h14.5v-40H10.2V85.5L10.2,85.5z M42.7,85.5h14.5v-40H42.7V85.5L42.7,85.5z M75.3,85.5h14.5v-40H75.3
	V85.5L75.3,85.5z M97.4,87.7H2.6v4.6h94.7V87.7z"/>
</svg>
