<?xml version="1.0" encoding="utf-8"?>
<!-- Generator: Adobe Illustrator 25.0.1, SVG Export Plug-In . SVG Version: 6.00 Build 0)  -->
<svg version="1.1" id="Layer_1" xmlns="http://www.w3.org/2000/svg" xmlns:xlink="http://www.w3.org/1999/xlink" x="0px" y="0px"
	 viewBox="0 0 100 100" style="enable-background:new 0 0 100 100;" xml:space="preserve">
<style type="text/css">
	.st0{fill:none;stroke:#0D47A1;stroke-width:2.144;stroke-miterlimit:10;}
</style>
<g>
	<path class="st0" d="M7.5,47.4c-3.8-3.9-5.6-9.3-5.6-16c0-4.4,0.9-8.3,2.6-11.6c1.7-3.3,4.1-5.8,7.2-7.6c3-1.8,6.5-2.7,10.4-2.7
		c6,0,10.9,2,14.7,5.9c3.8,4,5.6,9.3,5.6,16c0,6.8-1.9,12.1-5.6,16c-3.8,3.9-8.7,5.9-14.7,5.9C16.1,53.3,11.3,51.3,7.5,47.4z
		 M68.8,10.5H85l-54,79H14.8L68.8,10.5z M26.9,39.8c1.2-1.8,1.8-4.6,1.8-8.5s-0.6-6.7-1.8-8.5c-1.2-1.8-2.8-2.7-4.9-2.7
		c-2,0-3.6,0.9-4.8,2.8c-1.2,1.8-1.9,4.6-1.9,8.4c0,3.8,0.6,6.6,1.9,8.4c1.2,1.8,2.8,2.8,4.8,2.8C24.1,42.6,25.7,41.6,26.9,39.8z
		 M63.2,84.7c-3.7-3.9-5.6-9.3-5.6-16c0-6.7,1.9-12,5.6-16c3.8-4,8.6-5.9,14.6-5.9c6,0,10.9,2,14.7,5.9c3.8,4,5.6,9.3,5.6,16
		c0,6.8-1.9,12.1-5.6,16c-3.8,3.9-8.7,5.9-14.7,5.9C71.8,90.5,66.9,88.6,63.2,84.7z M82.7,77.1c1.2-1.8,1.8-4.6,1.8-8.5
		s-0.6-6.7-1.8-8.5c-1.2-1.8-2.8-2.7-4.9-2.7c-2,0-3.7,0.9-4.9,2.7c-1.2,1.8-1.8,4.6-1.8,8.5s0.6,6.7,1.8,8.5
		c1.2,1.8,2.8,2.7,4.9,2.7C79.9,79.8,81.5,78.9,82.7,77.1z"/>
</g>
</svg>
