<?xml version="1.0" encoding="utf-8"?>
<!-- Generator: Adobe Illustrator 25.0.1, SVG Export Plug-In . SVG Version: 6.00 Build 0)  -->
<svg version="1.1" id="Layer_1" xmlns="http://www.w3.org/2000/svg" xmlns:xlink="http://www.w3.org/1999/xlink" x="0px" y="0px"
	 viewBox="0 0 100 100" style="enable-background:new 0 0 100 100;" xml:space="preserve">
<style type="text/css">
	.st0{fill-rule:evenodd;clip-rule:evenodd;fill:#0D47A1;}
</style>
<path class="st0" d="M2,26.9h18h57.8h18h0.1v-4.5H2V26.9L2,26.9z M78.7,28.6v26.1c0,0.5-0.4,0.8-0.8,0.8H20c-0.5,0-0.8-0.4-0.8-0.8
	V28.6h-18c-0.5,0-0.8-0.4-0.8-0.8v-6.1c0-0.5,0.4-0.8,0.8-0.8h95.6c0.5,0,0.8,0.4,0.8,0.8v6.1c0,0.5-0.4,0.8-0.8,0.8h-0.1v25.9
	c0.7,0.2,1.4,0.5,1.9,1c0.7,0.7,1.1,1.6,1.1,2.7c0,1-0.4,2-1.1,2.7c-0.5,0.5-1.1,0.9-1.9,1v0.9c0.7,0.2,1.4,0.5,1.9,1l0,0l0,0
	c0.7,0.7,1.1,1.6,1.1,2.7v9.8c0,0.8-0.3,1.5-0.8,2c-0.5,0.5-1.2,0.8-2,0.8h-1.9c-0.8,0-1.5-0.3-2-0.8l0,0l0,0
	c-0.5-0.5-0.8-1.2-0.8-2v-9.8c0-1,0.4-2,1.1-2.7l0,0c0.5-0.5,1.1-0.9,1.9-1v-0.9c-0.7-0.2-1.4-0.5-1.9-1c-0.7-0.7-1.1-1.6-1.1-2.7
	c0-1.1,0.4-2,1.1-2.7c0.5-0.5,1.1-0.9,1.9-1V28.6H78.7L78.7,28.6z M20.9,28.6v25.3h56.2V28.6H20.9L20.9,28.6z M97.4,56.7
	C97,56.3,96.5,56,95.9,56c-0.6,0-1.1,0.2-1.5,0.6c-0.4,0.4-0.6,0.9-0.6,1.5c0,0.6,0.2,1.1,0.6,1.5c0.4,0.4,0.9,0.6,1.5,0.6
	c0.6,0,1.1-0.2,1.5-0.6c0.4-0.4,0.6-0.9,0.6-1.5C98,57.6,97.8,57.1,97.4,56.7L97.4,56.7z M93.7,66.6v9.8c0,0.3,0.1,0.6,0.4,0.9l0,0
	c0.2,0.2,0.5,0.4,0.9,0.4h1.9c0.3,0,0.6-0.1,0.9-0.4c0.2-0.2,0.4-0.5,0.4-0.9v-9.8c0-0.6-0.2-1.1-0.6-1.5l0,0
	c-0.4-0.4-0.9-0.6-1.5-0.6c-0.6,0-1.1,0.2-1.5,0.6C93.9,65.4,93.7,66,93.7,66.6z"/>
</svg>
