<?xml version="1.0" encoding="utf-8"?>
<!-- Generator: Adobe Illustrator 25.0.1, SVG Export Plug-In . SVG Version: 6.00 Build 0)  -->
<svg version="1.1" id="Layer_1" xmlns="http://www.w3.org/2000/svg" xmlns:xlink="http://www.w3.org/1999/xlink" x="0px" y="0px"
	 viewBox="0 0 100 100" style="enable-background:new 0 0 100 100;" xml:space="preserve">
<style type="text/css">
	.st0{fill-rule:evenodd;clip-rule:evenodd;fill:#0D47A1;}
</style>
<path class="st0" d="M95.3,48.9l2.1-4.8l-15.5,0c-0.9,0-1.8,0.3-2.5,0.7c-0.7,0.4-1.2,1.1-1.6,1.9l-1,2.2H95.3L95.3,48.9z M75,51
	l1.5,3.3c0.5,1.2,1.3,2.1,2.3,2.7c0.9,0.6,2.1,0.9,3.2,0.9l1.5,0c-1.8,9.3-6.8,17.4-13.7,23.3c-7.1,6-16.4,9.7-26.4,9.7
	c-11.3,0-21.5-4.6-29-12C7,71.5,2.4,61.3,2.4,50c0-11.3,4.6-21.5,12-28.9c7.4-7.4,17.6-12,29-12c10.1,0,19.3,3.6,26.4,9.7
	c6.9,5.9,11.9,14,13.7,23.3H82c-1.2,0-2.3,0.3-3.2,0.9c-1,0.6-1.8,1.6-2.3,2.7L75,49l-5.2,0c0.1-0.2,0.1-0.4,0.1-0.6
	c-0.4-7-3.5-13.3-8.3-17.8c-4.8-4.5-11.2-7.2-18.3-7.2c-7.4,0-14,3-18.9,7.8C19.6,36,16.7,42.6,16.7,50c0,7.4,3,14,7.8,18.9
	c4.8,4.8,11.5,7.8,18.9,7.8c7.1,0,13.5-2.7,18.3-7.2c4.8-4.5,7.9-10.8,8.3-17.8c0-0.2,0-0.4-0.1-0.6L75,51L75,51z M68,51l-13.2,0
	c0.1,0.2,0.2,0.4,0.1,0.7c-0.4,2.8-1.9,5.3-3.9,7.1c-2,1.8-4.7,2.8-7.6,2.8c-3.2,0-6.1-1.3-8.3-3.4l0,0c-2.1-2.1-3.4-5-3.4-8.3
	s1.3-6.1,3.4-8.3c2.1-2.1,5-3.4,8.3-3.4c2.9,0,5.6,1.1,7.6,2.8c2.1,1.8,3.5,4.3,3.9,7.1c0,0.2,0,0.5-0.1,0.7L68,49
	c-0.1-0.1-0.1-0.3-0.1-0.4c-0.4-6.5-3.3-12.2-7.7-16.4c-4.4-4.1-10.3-6.7-16.8-6.7c-6.8,0-12.9,2.8-17.4,7.2
	c-4.4,4.4-7.2,10.6-7.2,17.4c0,6.8,2.7,12.9,7.2,17.4c4.4,4.4,10.6,7.2,17.4,7.2c6.5,0,12.4-2.5,16.8-6.7c4.4-4.2,7.3-9.9,7.7-16.4
	C67.8,51.3,67.9,51.2,68,51L68,51z M52.9,51.1l-10.2,0c-0.6,0-1-0.5-1-1c0-0.6,0.5-1,1-1l10.2,0c-0.1-0.1-0.1-0.2-0.1-0.4
	c-0.3-2.3-1.5-4.4-3.2-5.9c-1.7-1.4-3.9-2.3-6.3-2.3c-2.6,0-5,1.1-6.8,2.8c-1.7,1.7-2.8,4.1-2.8,6.8c0,2.6,1.1,5,2.8,6.8l0,0l0,0
	c1.7,1.7,4.1,2.8,6.8,2.8c2.4,0,4.6-0.9,6.2-2.3c1.7-1.5,2.9-3.5,3.2-5.8C52.8,51.3,52.9,51.2,52.9,51.1L52.9,51.1z M96.7,50
	l2.9,6.4c0.2,0.5,0.1,1.2-0.3,1.4C99.2,57.9,99,58,98.8,58l-13.2,0c-1.9,9.9-7.1,18.6-14.5,24.9C63.6,89.2,53.9,93,43.3,93
	c-11.9,0-22.6-4.8-30.4-12.6C5.1,72.6,0.3,61.9,0.3,50c0-11.9,4.8-22.6,12.6-30.4C20.7,11.8,31.4,7,43.3,7
	c10.6,0,20.3,3.8,27.8,10.2c7.4,6.3,12.6,15,14.5,24.9l13.2,0c0.1,0,0.3,0,0.4,0.1c0.4,0.3,0.5,0.9,0.3,1.4L96.7,50L96.7,50z
	 M82,55.9l15.5,0l-2.1-4.8l-18.4,0l1,2.2c0.4,0.8,0.9,1.4,1.6,1.9C80.2,55.6,81.1,55.9,82,55.9z"/>
</svg>
