<?xml version="1.0" encoding="utf-8"?>
<!-- Generator: Adobe Illustrator 25.0.1, SVG Export Plug-In . SVG Version: 6.00 Build 0)  -->
<svg version="1.1" id="Layer_1" xmlns="http://www.w3.org/2000/svg" xmlns:xlink="http://www.w3.org/1999/xlink" x="0px" y="0px"
	 viewBox="0 0 100 100" style="enable-background:new 0 0 100 100;" xml:space="preserve">
<style type="text/css">
	.st0{fill-rule:evenodd;clip-rule:evenodd;fill:#0D47A1;}
</style>
<path class="st0" d="M27,64.4l18-23.3c0.2-0.3,0.6-0.5,1-0.5l21.1,0l6.4-11.2l-2,1c-0.6,0.3-1.3,0-1.6-0.5l-4.4-9
	c-0.3-0.6-0.1-1.3,0.5-1.6v0L94.5,3.9c0.6-0.3,1.3-0.1,1.6,0.5c0.1,0.2,0.1,0.4,0.1,0.6h0v32.5c0,0.7-0.5,1.2-1.2,1.2H95L85.1,39
	c-0.7,0-1.2-0.5-1.2-1.2l-0.1-1.7l-9.3,16.3c-0.2,0.4-0.7,0.6-1.1,0.6l-22,0L36.9,72c-0.7,0.9-1.7,1.5-2.8,1.6
	c-1.1,0.1-2.2-0.1-3.1-0.8l-3.2-2.4l0,0c-0.9-0.7-1.5-1.7-1.6-2.8C26.1,66.4,26.3,65.3,27,64.4L27,64.4L27,64.4z M97.2,82.3H17.3
	V2.4c0-0.7-0.5-1.2-1.2-1.2c-0.7,0-1.2,0.5-1.2,1.2v79.9H2.1c-0.7,0-1.2,0.5-1.2,1.2c0,0.7,0.5,1.2,1.2,1.2h12.9v12.9
	c0,0.7,0.5,1.2,1.2,1.2c0.7,0,1.2-0.5,1.2-1.2V84.7h79.9c0.7,0,1.2-0.5,1.2-1.2C98.4,82.8,97.9,82.3,97.2,82.3L97.2,82.3z M46.5,43
	L28.9,65.8l0,0c-0.3,0.4-0.4,0.9-0.4,1.3c0.1,0.5,0.3,0.9,0.7,1.2l0,0l3.2,2.4c0.4,0.3,0.9,0.4,1.3,0.4c0.5-0.1,0.9-0.3,1.2-0.7
	l14.9-19.3h0c0.2-0.3,0.6-0.5,0.9-0.5l22,0l11-19.3c0.2-0.4,0.6-0.6,1-0.6c0.7,0,1.2,0.5,1.2,1.2l0.2,4.7l7.6-0.3V7L68,20.8l3.4,6.9
	l4.4-2.2l0,0c0.3-0.2,0.8-0.2,1.1,0c0.6,0.3,0.8,1.1,0.5,1.6l-8.6,15.2c-0.2,0.4-0.6,0.7-1.1,0.7L46.5,43z"/>
</svg>
