<?xml version="1.0" encoding="utf-8"?>
<!-- Generator: Adobe Illustrator 25.0.1, SVG Export Plug-In . SVG Version: 6.00 Build 0)  -->
<svg version="1.1" id="Layer_1" xmlns="http://www.w3.org/2000/svg" xmlns:xlink="http://www.w3.org/1999/xlink" x="0px" y="0px"
	 viewBox="0 0 100 100" style="enable-background:new 0 0 100 100;" xml:space="preserve">
<style type="text/css">
	.st0{fill-rule:evenodd;clip-rule:evenodd;fill:#0D47A1;}
</style>
<path class="st0" d="M18.8,66.4l13.1-9.3c-0.4-1-0.7-2-0.9-3.1c-0.3-1.3-0.4-2.7-0.4-4.1c0-5.3,2.2-10.2,5.7-13.7
	c3.5-3.5,8.3-5.7,13.7-5.8l2.1,0c0.6,0,1,0.5,1.1,1v0h0v10.8l9.3-6.6c0,0,0.1,0,0.1-0.1l14.2-10l4-2.8L53,3.3v10.3
	c0,0.6-0.5,1.1-1.1,1.1l-0.1,0l-2,0c-9.7,0-18.5,4-24.9,10.4C18.6,31.5,14.7,40.3,14.7,50c0,3.1,0.4,6.1,1.2,9
	C16.5,61.6,17.5,64.1,18.8,66.4L18.8,66.4z M81.2,33.6c1.2,2.4,2.2,4.8,2.9,7.4c0.8,2.9,1.2,6,1.2,9c0,9.7-3.9,18.5-10.3,24.9
	c-6.4,6.4-15.2,10.3-24.9,10.4l-2,0l-0.1,0c-0.6,0-1.1,0.5-1.1,1.1v10.3L19.3,77.2l4-2.8l14.2-10c0,0,0.1,0,0.1-0.1l9.3-6.6v10.8h0
	v0c0,0.6,0.5,1,1.1,1l2.1,0c5.4,0,10.2-2.2,13.7-5.8c3.5-3.5,5.7-8.4,5.7-13.7c0-1.4-0.1-2.7-0.4-4.1c-0.2-1.1-0.5-2.1-0.9-3.1
	L81.2,33.6L81.2,33.6z M66.2,41.6L81,31.2l0,0c0,0,0.1,0,0.1-0.1c0.5-0.3,1.1-0.1,1.4,0.4c1.6,2.8,2.8,5.8,3.6,8.9
	c0.8,3.1,1.2,6.3,1.2,9.6c0,10.3-4.2,19.6-10.9,26.4c-6.7,6.8-16.1,11-26.4,11l-1,0v11.3h0c0,0.2-0.1,0.4-0.2,0.6
	c-0.3,0.5-1,0.6-1.5,0.3L16.9,78.1c-0.1-0.1-0.2-0.2-0.3-0.3c-0.3-0.5-0.2-1.1,0.3-1.5l5.2-3.7l14.3-10.1l0,0c0,0,0.1-0.1,0.1-0.1
	l10.8-7.6c0.2-0.1,0.4-0.2,0.7-0.2c0.6,0,1,0.5,1,1.1v11.7l1,0c4.8,0,9.1-2,12.2-5.1c3.1-3.1,5-7.5,5-12.3c0-1.2-0.1-2.5-0.4-3.7
	c-0.3-1.2-0.6-2.3-1.1-3.4C65.7,42.5,65.8,41.9,66.2,41.6L66.2,41.6z M33.8,58.4L19,68.8l0,0c0,0-0.1,0-0.1,0.1
	c-0.5,0.3-1.1,0.1-1.4-0.4c-1.6-2.8-2.8-5.8-3.6-8.9c-0.8-3.1-1.2-6.3-1.2-9.6c0-10.3,4.2-19.6,10.9-26.4c6.7-6.8,16.1-11,26.4-11
	l1,0V1.3h0c0-0.2,0.1-0.4,0.2-0.6c0.3-0.5,1-0.6,1.5-0.3l30.5,21.5c0.1,0.1,0.2,0.2,0.3,0.3c0.3,0.5,0.2,1.1-0.3,1.5l-5.2,3.7
	L63.5,37.4l0,0l-0.1,0l-10.9,7.7c-0.2,0.1-0.4,0.2-0.7,0.2c-0.6,0-1.1-0.5-1.1-1V32.6l-1,0c-4.8,0-9.1,2-12.2,5.1
	c-3.1,3.1-5,7.5-5,12.3c0,1.2,0.1,2.5,0.4,3.7c0.3,1.2,0.6,2.3,1.1,3.4C34.3,57.5,34.2,58.1,33.8,58.4z"/>
</svg>
