<svg id="7c0869ae-f388-43ee-850d-5b7fb71ab01d" data-name="Layer 1" xmlns="http://www.w3.org/2000/svg" viewBox="0 0 292.08 97.63">
  <title>ips-logo-blue</title>
  <g>
    <rect y="0.17" width="18.69" height="74.72" style="fill: #fff"/>
    <polygon points="18.69 97.17 0 78.47 4.01 78.47 22.7 97.17 18.69 97.17" style="fill: #fff"/>
    <polygon points="33.37 97.17 14.68 78.47 18.69 78.47 37.38 97.17 33.37 97.17" style="fill: #fff"/>
    <polygon points="26.03 97.17 7.34 78.47 11.35 78.47 30.04 97.17 26.03 97.17" style="fill: #fff"/>
    <path d="M75.61,37.52v0H68.95a9.35,9.35,0,0,1,0-18.69h32.93V0.17H68.95a28,28,0,0,0,0,56.07h6.67a11.11,11.11,0,0,1,0,22.21v0H27.14L45.83,97.17H75.61A29.82,29.82,0,0,0,75.61,37.52Z" style="fill: rgba(255,255,255,0.5)"/>
    <path d="M59.08,0.17H26.15V18.86H59.08a9.35,9.35,0,0,1,0,18.69H26.15V56.24H59.08A28,28,0,0,0,59.08.17Z" style="fill: #fff"/>
  </g>
  <g>
    <path d="M126.64,27.16h-3.16V0.48h3.16V27.16Z" style="fill: #fff"/>
    <path d="M143.4,27.16L136,9c-0.72-1.84-1.32-3.44-1.8-4.84,0.16,1.72.28,3.92,0.28,5.36V27.16H131.6V0.48h4.12l7,17.52c1.16,2.88,1.52,3.92,2,5.28-0.12-2.28-.16-4-0.16-5.92V0.48h2.92V27.16h-4Z" style="fill: #fff"/>
    <path d="M164.16,27.16L156.8,9c-0.72-1.84-1.32-3.44-1.8-4.84,0.16,1.72.28,3.92,0.28,5.36V27.16h-2.92V0.48h4.12l7,17.52c1.16,2.88,1.52,3.92,2,5.28-0.12-2.28-.16-4-0.16-5.92V0.48h2.92V27.16h-4Z" style="fill: #fff"/>
    <path d="M187.92,4.36c0.92,2,1.4,5.32,1.4,9.6,0,4.44-.6,7.92-1.72,9.92a7.22,7.22,0,0,1-6.72,3.76,7.29,7.29,0,0,1-7.08-4.36c-0.88-2-1.4-5.36-1.4-9.48,0-4.56.6-8,1.72-10A7.91,7.91,0,0,1,187.92,4.36ZM175.56,13.8c0,8,1.52,11.16,5.32,11.16s5.28-3.2,5.28-11c0-8.08-1.48-11.24-5.28-11.24S175.56,5.84,175.56,13.8Z" style="fill: #fff"/>
    <path d="M198.36,27.16L190.88,0.48h3.52l4.68,17.76c0.4,1.56,1,4.24,1.24,5.52,0.36-1.56,1-3.88,1.4-5.52l4.72-17.76h3.44l-7.64,26.68h-3.88Z" style="fill: #fff"/>
    <path d="M214.28,19.52l-2.08,7.64H209l7.68-26.68h4l7.92,26.68h-3.4L223,19.52h-8.72ZM220,8.6c-0.6-2.2-.72-2.68-1.32-5.12-0.4,1.68-.8,3.16-1.32,5.12L215,16.84h7.24Z" style="fill: #fff"/>
    <path d="M237.08,27.16h-3.16v-24h-6.68V0.48h16.48V3.16h-6.64v24Z" style="fill: #fff"/>
    <path d="M249.92,27.16h-3.16V0.48h3.16V27.16Z" style="fill: #fff"/>
    <path d="M260.44,27.16L253,0.48h3.52l4.68,17.76c0.4,1.56,1,4.24,1.24,5.52,0.36-1.56,1-3.88,1.4-5.52l4.72-17.76H272l-7.64,26.68h-3.88Z" style="fill: #fff"/>
    <path d="M289.27,3.28H278.16v8.56h10.68v2.68H278.16v9.84h11.52v2.8H275V0.48h14.28v2.8Z" style="fill: #fff"/>
    <path d="M126.64,62.16h-3.16V35.48h6.92c2.4,0,4,.4,5.08,1.32,1.64,1.28,2.56,3.6,2.56,6.4,0,5-2.56,7.76-7.2,7.76h-4.2v11.2Zm3.68-13.88c3.12,0,4.56-1.56,4.56-5s-1.44-5-4.56-5h-3.68v10h3.68Z" style="fill: #fff"/>
    <path d="M144.76,62.16H141.6V35.48h7.48c2.72,0,4.36.48,5.52,1.68a7.2,7.2,0,0,1,1.84,5.24c0,3.4-1.32,5.4-4.2,6.36a4.82,4.82,0,0,1,3.12,1.68,8.09,8.09,0,0,1,1,4.32v3a6.42,6.42,0,0,0,1.36,4.44H154a13.11,13.11,0,0,1-.76-4.44V55.24c0-4-1.16-5.16-5-5.16h-3.52V62.16Zm4.12-14.6c3,0,4.4-1.56,4.4-4.8S151.84,38,148.88,38h-4.12v9.56h4.12Z" style="fill: #fff"/>
    <path d="M164.52,62.16h-3.16V35.48h3.16V62.16Z" style="fill: #fff"/>
    <path d="M181.72,43.32c-0.2-3.84-1.76-5.8-4.56-5.8-3.64,0-5.28,3.16-5.28,10.32,0,4.12.36,7.2,1,9,0.84,2.2,2.28,3.32,4.28,3.32,3.16,0,4.76-2.56,4.84-7.64h3.08c-0.28,6.84-2.92,10.16-8,10.16-5.8,0-8.4-4.36-8.4-14.08,0-5.36.76-8.72,2.44-10.8A7.31,7.31,0,0,1,177.28,35c4.52,0,7.24,3,7.52,8.32h-3.08Z" style="fill: #fff"/>
    <path d="M191.88,62.16h-3.16V35.48h3.16V62.16Z" style="fill: #fff"/>
    <path d="M208.63,62.16L201.28,44c-0.72-1.84-1.32-3.44-1.8-4.84,0.16,1.72.28,3.92,0.28,5.36V62.16h-2.92V35.48H201l7,17.52c1.16,2.88,1.52,3.92,2,5.28-0.12-2.28-.16-4-0.16-5.92V35.48h2.92V62.16h-4Z" style="fill: #fff"/>
    <path d="M233.47,48.36v13.8h-2.36a16.19,16.19,0,0,0-.36-2.48c-1.6,2.16-3.08,3-5.48,3a7.29,7.29,0,0,1-6.64-3.88c-1.16-2.12-1.76-5.52-1.76-10.24,0-5,.68-8.32,2.12-10.36A7.75,7.75,0,0,1,225.68,35c4.84,0,7.44,2.84,7.64,8.4h-3.12c-0.12-3.84-1.68-5.84-4.64-5.84a4.67,4.67,0,0,0-4.52,3.2c-0.68,1.56-1,4.2-1,7.92,0,7.88,1.64,11.28,5.52,11.28,2.16,0,3.68-1.2,4.44-3.56a20.48,20.48,0,0,0,.56-5.36h-5.64V48.36h8.56Z" style="fill: #fff"/>
    <path d="M134.84,77.64c-0.12-3.56-1.48-5.12-4.48-5.12-2.84,0-4.56,1.64-4.56,4.36,0,2.36,1,3.56,3.72,4.56l3.72,1.32c2.2,0.8,3.36,1.56,4.2,2.72A7.63,7.63,0,0,1,138.68,90c0,4.8-3,7.64-8.2,7.64-4.12,0-6.8-1.72-7.72-5a11.37,11.37,0,0,1-.44-3.84h3.24v1c0,3.56,1.64,5.32,5,5.32s5-1.64,5-4.88c0-2.64-.8-3.56-3.92-4.72l-3-1c-4.24-1.52-5.72-3.4-5.72-7.08,0-4.56,2.92-7.4,7.64-7.4,3,0,5.4,1.2,6.56,3.4a9.31,9.31,0,0,1,.88,4.24h-3.12Z" style="fill: #fff"/>
    <path d="M157.36,74.36c0.92,2,1.4,5.32,1.4,9.6,0,4.44-.6,7.92-1.72,9.92a7.22,7.22,0,0,1-6.72,3.76,7.3,7.3,0,0,1-7.08-4.36c-0.88-2-1.4-5.36-1.4-9.48,0-4.56.6-8,1.72-10A7.91,7.91,0,0,1,157.36,74.36ZM145,83.8c0,8,1.52,11.16,5.32,11.16s5.28-3.2,5.28-11c0-8.08-1.48-11.24-5.28-11.24S145,75.84,145,83.8Z" style="fill: #fff"/>
    <path d="M166.16,94.36h11v2.8H163V70.48h3.16V94.36Z" style="fill: #fff"/>
    <path d="M195.36,70.48V88.36c0,3.2-.4,5-1.48,6.44a8.19,8.19,0,0,1-12.4,0c-1.08-1.48-1.48-3.24-1.48-6.44V70.48h3.16V88.64c0,2.76.28,4,1.12,4.92a4.39,4.39,0,0,0,3.4,1.4,4.33,4.33,0,0,0,3.4-1.4c0.84-1,1.12-2.16,1.12-4.92V70.48h3.16Z" style="fill: #fff"/>
    <path d="M208.28,97.16h-3.16v-24h-6.68V70.48h16.48v2.68h-6.64v24Z" style="fill: #fff"/>
    <path d="M221.12,97.16H218V70.48h3.16V97.16Z" style="fill: #fff"/>
    <path d="M240.83,74.36c0.92,2,1.4,5.32,1.4,9.6,0,4.44-.6,7.92-1.72,9.92a7.22,7.22,0,0,1-6.72,3.76,7.3,7.3,0,0,1-7.08-4.36c-0.88-2-1.4-5.36-1.4-9.48,0-4.56.6-8,1.72-10A7.91,7.91,0,0,1,240.83,74.36ZM228.48,83.8c0,8,1.52,11.16,5.32,11.16s5.28-3.2,5.28-11c0-8.08-1.48-11.24-5.28-11.24S228.48,75.84,228.48,83.8Z" style="fill: #fff"/>
    <path d="M258.28,97.16L250.92,79c-0.72-1.84-1.32-3.44-1.8-4.84,0.16,1.72.28,3.92,0.28,5.36V97.16h-2.92V70.48h4.12l7,17.52c1.16,2.88,1.52,3.92,2,5.28-0.12-2.28-.16-4-0.16-5.92V70.48h2.92V97.16h-4Z" style="fill: #fff"/>
    <path d="M278.6,77.64c-0.12-3.56-1.48-5.12-4.48-5.12-2.84,0-4.56,1.64-4.56,4.36,0,2.36,1,3.56,3.72,4.56L277,82.76c2.2,0.8,3.36,1.56,4.2,2.72A7.63,7.63,0,0,1,282.43,90c0,4.8-3,7.64-8.2,7.64-4.12,0-6.8-1.72-7.72-5a11.34,11.34,0,0,1-.44-3.84h3.24v1c0,3.56,1.64,5.32,5,5.32s5-1.64,5-4.88c0-2.64-.8-3.56-3.92-4.72l-3-1c-4.24-1.52-5.72-3.4-5.72-7.08,0-4.56,2.92-7.4,7.64-7.4,3,0,5.4,1.2,6.56,3.4a9.31,9.31,0,0,1,.88,4.24H278.6Z" style="fill: #fff"/>
  </g>
</svg>
