<?xml version="1.0" encoding="utf-8"?>
<!-- Generator: Adobe Illustrator 25.0.1, SVG Export Plug-In . SVG Version: 6.00 Build 0)  -->
<svg version="1.1" id="Layer_1" xmlns="http://www.w3.org/2000/svg" xmlns:xlink="http://www.w3.org/1999/xlink" x="0px" y="0px"
	 viewBox="0 0 205 96" style="enable-background:new 0 0 205 96;" xml:space="preserve">
<style type="text/css">
	.st0{fill:#FFFFFF;}
	.st1{fill:#DA3927;}
	.st2{fill:url(#SVGID_1_);}
	.st3{fill:url(#SVGID_2_);}
	.st4{fill:url(#SVGID_3_);}
	.st5{fill:url(#SVGID_4_);}
	.st6{fill:#EE3E2B;}
	.st7{fill:url(#SVGID_5_);}
	.st8{fill:url(#SVGID_6_);}
	.st9{fill:url(#SVGID_7_);}
	.st10{fill:url(#SVGID_8_);}
	.st11{fill:url(#SVGID_9_);}
	.st12{fill:url(#SVGID_10_);}
	.st13{fill:url(#SVGID_11_);}
	.st14{fill:url(#SVGID_12_);}
	.st15{fill:url(#SVGID_13_);}
	.st16{fill:url(#SVGID_14_);}
	.st17{fill:url(#SVGID_15_);}
	.st18{fill:url(#SVGID_16_);}
	.st19{fill:url(#SVGID_17_);}
</style>
<g>
	<g>
		<path class="st0" d="M88.4,28.4h4.5v42.8h-4.5V28.4z"/>
		<path class="st0" d="M144.6,28.4h4.5v42.8h-6.2l-29.4-37.4v37.4h-4.5V28.4h6.2l29.4,37.4V28.4z"/>
		<path class="st0" d="M202.7,28.4l-16.8,21.4c5.4,7,11.3,14.5,16.8,21.4h-5.8L183,53.6l-14,17.7h-5.8L180,49.8l-16.8-21.4h5.8
			l14,17.7l13.9-17.7H202.7z"/>
	</g>
	<g>
		<polygon class="st1" points="165.3,43.3 165.8,43.7 171.6,49.7 165.3,56.1 158.8,56.5 162.4,53.3 161.2,52 158.7,49.8 159,49.8 
			159,49.5 161.4,46.9 162.7,45.9 		"/>
		
			<linearGradient id="SVGID_1_" gradientUnits="userSpaceOnUse" x1="126.2346" y1="269.0875" x2="128.84" y2="271.4421" gradientTransform="matrix(1 -1.080000e-02 1.080000e-02 1 32.7103 -221.3657)">
			<stop  offset="0" style="stop-color:#F16522"/>
			<stop  offset="0.8182" style="stop-color:#F58C58"/>
		</linearGradient>
		<polygon class="st2" points="162.5,45.9 161.4,46.9 164.3,49.2 164.5,47.8 		"/>
		
			<linearGradient id="SVGID_2_" gradientUnits="userSpaceOnUse" x1="126.6317" y1="273.6036" x2="127.9792" y2="274.8214" gradientTransform="matrix(1 -1.080000e-02 1.080000e-02 1 32.7103 -221.3657)">
			<stop  offset="0" style="stop-color:#F16522"/>
			<stop  offset="0.8182" style="stop-color:#F58C58"/>
		</linearGradient>
		<polygon class="st3" points="164.1,50.1 164.3,51.5 162.2,53.2 161.2,52.1 		"/>
		
			<linearGradient id="SVGID_3_" gradientUnits="userSpaceOnUse" x1="130.7466" y1="270.5378" x2="134.3654" y2="273.8083" gradientTransform="matrix(1 -1.080000e-02 1.080000e-02 1 32.7103 -221.3657)">
			<stop  offset="0" style="stop-color:#F16522"/>
			<stop  offset="0.8182" style="stop-color:#F58C58"/>
		</linearGradient>
		<polygon class="st4" points="171.6,49.7 165.4,48.9 165.3,49.5 		"/>
		
			<linearGradient id="SVGID_4_" gradientUnits="userSpaceOnUse" x1="130.8004" y1="271.1443" x2="134.1457" y2="274.1675" gradientTransform="matrix(1 -1.080000e-02 1.080000e-02 1 32.7103 -221.3657)">
			<stop  offset="0" style="stop-color:#F16522"/>
			<stop  offset="0.8182" style="stop-color:#F58C58"/>
		</linearGradient>
		<polygon class="st5" points="165.3,49.6 171.6,49.8 165.9,50.2 165.4,50.6 		"/>
		<polygon class="st6" points="164.6,48.2 165.3,48.8 165.2,49.5 159,49.7 159,49.5 164.5,49.3 		"/>
		
			<linearGradient id="SVGID_5_" gradientUnits="userSpaceOnUse" x1="123.2837" y1="273.2567" x2="129.5037" y2="273.2567" gradientTransform="matrix(1 -1.080000e-02 1.080000e-02 1 32.7103 -221.3657)">
			<stop  offset="0" style="stop-color:#ED3024"/>
			<stop  offset="0.4573" style="stop-color:#ED3225"/>
			<stop  offset="0.6221" style="stop-color:#EE3929"/>
			<stop  offset="0.7395" style="stop-color:#EF4430"/>
			<stop  offset="0.8344" style="stop-color:#F05539"/>
			<stop  offset="0.9157" style="stop-color:#F26B46"/>
			<stop  offset="0.9865" style="stop-color:#F48655"/>
			<stop  offset="1" style="stop-color:#F58C58"/>
		</linearGradient>
		<polygon class="st7" points="165.2,49.6 165.2,50.8 164.5,51.4 164.3,50 158.9,49.7 		"/>
		<g>
			
				<linearGradient id="SVGID_6_" gradientUnits="userSpaceOnUse" x1="124.3487" y1="263.9341" x2="130.8323" y2="269.7936" gradientTransform="matrix(1 -1.080000e-02 1.080000e-02 1 32.7103 -221.3657)">
				<stop  offset="0" style="stop-color:#F16522"/>
				<stop  offset="0.8182" style="stop-color:#F58C58"/>
			</linearGradient>
			<polygon class="st8" points="158.7,42.5 165.4,43.3 165.5,49 			"/>
			
				<linearGradient id="SVGID_7_" gradientUnits="userSpaceOnUse" x1="129.9995" y1="269.4066" x2="136.0008" y2="269.4066" gradientTransform="matrix(1 -1.080000e-02 1.080000e-02 1 32.7103 -221.3657)">
				<stop  offset="0" style="stop-color:#F16522"/>
				<stop  offset="0.8182" style="stop-color:#F58C58"/>
			</linearGradient>
			<polygon class="st9" points="165.6,43.5 165.7,48.9 171.7,49.7 			"/>
			
				<linearGradient id="SVGID_8_" gradientUnits="userSpaceOnUse" x1="129.5875" y1="275.7692" x2="135.7933" y2="275.7692" gradientTransform="matrix(1 -1.080000e-02 1.080000e-02 1 32.7103 -221.3657)">
				<stop  offset="0" style="stop-color:#EF4B23"/>
				<stop  offset="1" style="stop-color:#F16342"/>
			</linearGradient>
			<polygon class="st10" points="165.9,50.4 171.4,49.8 165.3,56.1 			"/>
			
				<linearGradient id="SVGID_9_" gradientUnits="userSpaceOnUse" x1="122.9966" y1="276.1853" x2="130.1055" y2="276.1853" gradientTransform="matrix(1 -1.080000e-02 1.080000e-02 1 32.7103 -221.3657)">
				<stop  offset="0" style="stop-color:#F16522"/>
				<stop  offset="0.1998" style="stop-color:#F05C2F"/>
				<stop  offset="0.4875" style="stop-color:#EF533C"/>
				<stop  offset="0.7636" style="stop-color:#EF5040"/>
			</linearGradient>
			<polygon class="st11" points="165.8,50.4 165.1,56.2 158.8,56.5 158.7,56.2 			"/>
			
				<linearGradient id="SVGID_10_" gradientUnits="userSpaceOnUse" x1="120.2585" y1="267.2343" x2="126.9521" y2="272.9568" gradientTransform="matrix(1 -1.080000e-02 1.080000e-02 1 32.7103 -221.3657)">
				<stop  offset="0" style="stop-color:#EE3E2B"/>
				<stop  offset="0.9394" style="stop-color:#EF5040"/>
			</linearGradient>
			<polygon class="st12" points="156.8,43.2 164.2,49.1 158.9,49.5 158.5,49.3 			"/>
			
				<linearGradient id="SVGID_11_" gradientUnits="userSpaceOnUse" x1="120.1664" y1="276.524" x2="127.3101" y2="271.5304" gradientTransform="matrix(1 -1.080000e-02 1.080000e-02 1 32.7103 -221.3657)">
				<stop  offset="0" style="stop-color:#EF5040"/>
				<stop  offset="0.283" style="stop-color:#F05B31"/>
				<stop  offset="0.6232" style="stop-color:#F16226"/>
				<stop  offset="1" style="stop-color:#F16522"/>
			</linearGradient>
			<polygon class="st13" points="158.7,49.8 164.1,50 156.5,55.4 			"/>
		</g>
	</g>
	<g>
		<path class="st0" d="M67.7,88.4c0-3,0.7-4.4,2.1-4.4c1.5,0,2.1,1.4,2.1,4.4c0,3-0.7,4.4-2.1,4.4C68.4,92.8,67.7,91.4,67.7,88.4z
			 M71,88.3c0-2.9-0.5-3.4-1.1-3.4s-1.1,0.5-1.1,3.4c0,2.9,0.5,3.4,1.1,3.4S71,91.3,71,88.3z"/>
		<path class="st0" d="M73.4,84.1h1.3l1.9,6.4h0v-6.4h1v8.5h-1.3l-1.9-6.5h0v6.5h-1V84.1z"/>
		<path class="st0" d="M79.1,84.1h3.5v1.1h-2.5v2.4h2.3v1.1h-2.3v2.7h2.6v1.1h-3.6V84.1z"/>
		<path class="st0" d="M86.5,84.1h2.1c1.2,0,1.8,1,1.8,2.5c0,1.5-0.7,2.5-1.9,2.5h-0.9v3.5h-1V84.1z M87.6,88.1h0.7
			c0.6,0,1-0.4,1-1.5c0-0.9-0.3-1.5-1.1-1.5h-0.7V88.1z"/>
		<path class="st0" d="M91.4,88.4c0-3,0.7-4.4,2.1-4.4c1.5,0,2.1,1.4,2.1,4.4c0,3-0.7,4.4-2.1,4.4C92,92.8,91.4,91.4,91.4,88.4z
			 M94.6,88.3c0-2.9-0.5-3.4-1.1-3.4c-0.6,0-1.1,0.5-1.1,3.4c0,2.9,0.5,3.4,1.1,3.4C94.1,91.8,94.6,91.3,94.6,88.3z"/>
		<path class="st0" d="M97,84.1h2.3c0.9,0,1.6,0.6,1.6,2.2c0,1.1-0.4,1.9-1.1,2.1v0c0.6,0.1,1,0.5,1,1.7c0,0.6,0,1.2,0,1.7
			c0,0.4,0.2,0.6,0.3,0.7h-1.2c-0.1-0.2-0.1-0.4-0.2-0.8c0-0.5,0-1,0-1.6c0-0.9-0.2-1.3-0.9-1.3h-0.8v3.7h-1V84.1z M98.9,87.9
			c0.7,0,1-0.5,1-1.4c0-0.9-0.3-1.4-1-1.4h-0.9v2.8H98.9z"/>
		<path class="st0" d="M103.3,85.3h-1.5v-1.1h4.1v1.1h-1.5v7.4h-1V85.3z"/>
		<path class="st0" d="M107.6,84.1h1.3l1.7,8.5h-1.1l-0.4-2.1h-1.9l-0.4,2.1h-1.1L107.6,84.1z M109,89.5l-0.7-4.2h0l-0.8,4.2H109z"
			/>
		<path class="st0" d="M111.4,84.1h1v7.4h2.5v1.1h-3.6V84.1z"/>
		<path class="st0" d="M118.7,84.1h3.5v1.1h-2.4v2.4h2.3v1.1h-2.3v3.9h-1V84.1z"/>
		<path class="st0" d="M123.3,84.1h1v8.5h-1V84.1z"/>
		<path class="st0" d="M125.8,84.1h1.3l1.9,6.4h0v-6.4h1v8.5h-1.3l-1.9-6.5h0v6.5h-1V84.1z"/>
		<path class="st0" d="M132.7,84.1h1.3l1.7,8.5h-1.1l-0.4-2.1h-1.9l-0.4,2.1h-1.1L132.7,84.1z M134.1,89.5l-0.7-4.2h0l-0.8,4.2
			H134.1z"/>
		<path class="st0" d="M136.6,84.1h1.3l1.9,6.4h0v-6.4h1v8.5h-1.3l-1.9-6.5h0v6.5h-1V84.1z"/>
		<path class="st0" d="M146.3,89.6v0.2c0,1.5-0.5,3-2,3c-1.6,0-2.2-1.4-2.2-4.4c0-3,0.5-4.4,2.2-4.4c1.8,0,2,1.8,2,2.7v0.2h-1v-0.1
			c0-0.8-0.2-1.7-0.9-1.7c-0.8,0-1.1,0.6-1.1,3.4c0,2.7,0.3,3.4,1.1,3.4c0.9,0,1-1.3,1-2.1v-0.1H146.3z"/>
		<path class="st0" d="M147.4,84.1h1v8.5h-1V84.1z"/>
		<path class="st0" d="M151.2,84.1h1.3l1.7,8.5h-1.1l-0.4-2.1h-1.9l-0.4,2.1h-1.1L151.2,84.1z M152.6,89.5l-0.7-4.2h0l-0.8,4.2
			H152.6z"/>
		<path class="st0" d="M155,84.1h1v7.4h2.5v1.1H155V84.1z"/>
		<path class="st0" d="M163,90v0.2c0,1,0.3,1.6,1.1,1.6c0.7,0,1-0.6,1-1.2c0-0.9-0.3-1.3-0.9-1.5l-0.7-0.3c-0.9-0.5-1.4-1.1-1.4-2.3
			c0-1.6,0.8-2.4,2-2.4c1.7,0,1.8,1.4,1.8,2.2v0.2h-1v-0.2c0-0.8-0.3-1.2-0.9-1.2c-0.4,0-0.9,0.3-0.9,1.2c0,0.7,0.3,1.1,1,1.4
			l0.7,0.3c0.9,0.4,1.3,1.1,1.3,2.3c0,1.8-0.8,2.6-2.1,2.6c-1.6,0-2-1.4-2-2.6V90H163z"/>
		<path class="st0" d="M167.3,88.4c0-3,0.7-4.4,2.1-4.4c1.5,0,2.2,1.4,2.2,4.4c0,3-0.7,4.4-2.2,4.4
			C167.9,92.8,167.3,91.4,167.3,88.4z M170.5,88.3c0-2.9-0.5-3.4-1.1-3.4c-0.6,0-1.1,0.5-1.1,3.4c0,2.9,0.5,3.4,1.1,3.4
			C170,91.8,170.5,91.3,170.5,88.3z"/>
		<path class="st0" d="M172.8,84.1h1v7.4h2.5v1.1h-3.6V84.1z"/>
		<path class="st0" d="M178.4,84.1v6.1c0,1.1,0.3,1.6,1,1.6c0.6,0,0.9-0.5,0.9-1.6v-6.1h1v6c0,2-0.7,2.7-2,2.7c-1.2,0-2-0.7-2-2.7
			v-6H178.4z"/>
		<path class="st0" d="M183.8,85.3h-1.5v-1.1h4.1v1.1h-1.5v7.4h-1V85.3z"/>
		<path class="st0" d="M187.4,84.1h1v8.5h-1V84.1z"/>
		<path class="st0" d="M189.7,88.4c0-3,0.7-4.4,2.1-4.4c1.5,0,2.2,1.4,2.2,4.4c0,3-0.7,4.4-2.2,4.4
			C190.4,92.8,189.7,91.4,189.7,88.4z M193,88.3c0-2.9-0.5-3.4-1.1-3.4c-0.6,0-1.1,0.5-1.1,3.4c0,2.9,0.5,3.4,1.1,3.4
			C192.5,91.8,193,91.3,193,88.3z"/>
		<path class="st0" d="M195.4,84.1h1.3l1.9,6.4h0v-6.4h1v8.5h-1.3l-1.9-6.5h0v6.5h-1V84.1z"/>
		<path class="st0" d="M201.9,90v0.2c0,1,0.3,1.6,1.1,1.6c0.7,0,1-0.6,1-1.2c0-0.9-0.3-1.3-0.9-1.5l-0.7-0.3
			c-0.9-0.5-1.4-1.1-1.4-2.3c0-1.6,0.8-2.4,2-2.4c1.7,0,1.8,1.4,1.8,2.2v0.2h-1v-0.2c0-0.8-0.3-1.2-0.9-1.2c-0.4,0-0.9,0.3-0.9,1.2
			c0,0.7,0.3,1.1,1,1.4l0.7,0.3c0.9,0.4,1.3,1.1,1.3,2.3c0,1.8-0.8,2.6-2.2,2.6c-1.6,0-2-1.4-2-2.6V90H201.9z"/>
	</g>
	<g>
		<g>
			<linearGradient id="SVGID_12_" gradientUnits="userSpaceOnUse" x1="79.5056" y1="28.2771" x2="32.6854" y2="101.4561">
				<stop  offset="0" style="stop-color:#31459B"/>
				<stop  offset="0.1481" style="stop-color:#2E489D"/>
				<stop  offset="0.2752" style="stop-color:#2453A5"/>
				<stop  offset="0.3941" style="stop-color:#1365B1"/>
				<stop  offset="0.4909" style="stop-color:#0079C0"/>
				<stop  offset="0.5359" style="stop-color:#0B6BB6"/>
				<stop  offset="0.6248" style="stop-color:#1B55A8"/>
				<stop  offset="0.723" style="stop-color:#27469D"/>
				<stop  offset="0.8363" style="stop-color:#2E3D97"/>
				<stop  offset="1" style="stop-color:#303A95"/>
			</linearGradient>
			<polygon class="st14" points="24.6,95.8 72.2,71.1 72.1,58.4 24.6,82.8 			"/>
			<linearGradient id="SVGID_13_" gradientUnits="userSpaceOnUse" x1="68.935" y1="21.5135" x2="22.1144" y2="94.6929">
				<stop  offset="0" style="stop-color:#31459B"/>
				<stop  offset="0.1481" style="stop-color:#2E489D"/>
				<stop  offset="0.2752" style="stop-color:#2453A5"/>
				<stop  offset="0.3941" style="stop-color:#1365B1"/>
				<stop  offset="0.4909" style="stop-color:#0079C0"/>
				<stop  offset="0.5359" style="stop-color:#0B6BB6"/>
				<stop  offset="0.6248" style="stop-color:#1B55A8"/>
				<stop  offset="0.723" style="stop-color:#27469D"/>
				<stop  offset="0.8363" style="stop-color:#2E3D97"/>
				<stop  offset="1" style="stop-color:#303A95"/>
			</linearGradient>
			<polygon class="st15" points="24.6,71.7 71.8,48.2 71.7,35.3 24.5,59.7 			"/>
			<linearGradient id="SVGID_14_" gradientUnits="userSpaceOnUse" x1="75.6902" y1="25.8358" x2="28.8698" y2="99.0151">
				<stop  offset="0" style="stop-color:#31459B"/>
				<stop  offset="0.1481" style="stop-color:#2E489D"/>
				<stop  offset="0.2752" style="stop-color:#2453A5"/>
				<stop  offset="0.3941" style="stop-color:#1365B1"/>
				<stop  offset="0.4909" style="stop-color:#0079C0"/>
				<stop  offset="0.5359" style="stop-color:#0B6BB6"/>
				<stop  offset="0.6248" style="stop-color:#1B55A8"/>
				<stop  offset="0.723" style="stop-color:#27469D"/>
				<stop  offset="0.8363" style="stop-color:#2E3D97"/>
				<stop  offset="1" style="stop-color:#303A95"/>
			</linearGradient>
			<polygon class="st16" points="72.2,71.1 71.5,23.2 59.6,11.1 59.7,77.4 			"/>
		</g>
		<g>
			<linearGradient id="SVGID_15_" gradientUnits="userSpaceOnUse" x1="39.3489" y1="-4.5582" x2="-9.2629" y2="66.0823">
				<stop  offset="0" style="stop-color:#EF4B31"/>
				<stop  offset="0.1325" style="stop-color:#EF4E31"/>
				<stop  offset="0.2462" style="stop-color:#F05931"/>
				<stop  offset="0.353" style="stop-color:#F26B32"/>
				<stop  offset="0.4549" style="stop-color:#F58333"/>
				<stop  offset="0.4909" style="stop-color:#F68E33"/>
				<stop  offset="0.5385" style="stop-color:#F47F33"/>
				<stop  offset="0.627" style="stop-color:#F26932"/>
				<stop  offset="0.7246" style="stop-color:#F05A31"/>
				<stop  offset="0.8373" style="stop-color:#EF5131"/>
				<stop  offset="1" style="stop-color:#EF4E31"/>
			</linearGradient>
			<polygon class="st17" points="47.7,0 0.1,23.7 0.2,36.4 47.8,12 			"/>
			<linearGradient id="SVGID_16_" gradientUnits="userSpaceOnUse" x1="50.2656" y1="2.9542" x2="1.6538" y2="73.5948">
				<stop  offset="0" style="stop-color:#EF4B31"/>
				<stop  offset="0.1325" style="stop-color:#EF4E31"/>
				<stop  offset="0.2462" style="stop-color:#F05931"/>
				<stop  offset="0.353" style="stop-color:#F26B32"/>
				<stop  offset="0.4549" style="stop-color:#F58333"/>
				<stop  offset="0.4909" style="stop-color:#F68E33"/>
				<stop  offset="0.5385" style="stop-color:#F47F33"/>
				<stop  offset="0.627" style="stop-color:#F26932"/>
				<stop  offset="0.7246" style="stop-color:#F05A31"/>
				<stop  offset="0.8373" style="stop-color:#EF5131"/>
				<stop  offset="1" style="stop-color:#EF4E31"/>
			</linearGradient>
			<polygon class="st18" points="47.8,23.2 0.3,46.8 0.4,59.6 47.9,35.1 			"/>
			<linearGradient id="SVGID_17_" gradientUnits="userSpaceOnUse" x1="43.9149" y1="-1.4158" x2="-4.6968" y2="69.2245">
				<stop  offset="0" style="stop-color:#EF4B31"/>
				<stop  offset="0.1325" style="stop-color:#EF4E31"/>
				<stop  offset="0.2462" style="stop-color:#F05931"/>
				<stop  offset="0.353" style="stop-color:#F26B32"/>
				<stop  offset="0.4549" style="stop-color:#F58333"/>
				<stop  offset="0.4909" style="stop-color:#F68E33"/>
				<stop  offset="0.5385" style="stop-color:#F47F33"/>
				<stop  offset="0.627" style="stop-color:#F26932"/>
				<stop  offset="0.7246" style="stop-color:#F05A31"/>
				<stop  offset="0.8373" style="stop-color:#EF5131"/>
				<stop  offset="1" style="stop-color:#EF4E31"/>
			</linearGradient>
			<polygon class="st19" points="0,23 0.5,71.4 12.5,83.7 11.9,18 			"/>
		</g>
	</g>
</g>
</svg>
