<?xml version="1.0" encoding="utf-8"?>
<!-- Generator: Adobe Illustrator 25.0.1, SVG Export Plug-In . SVG Version: 6.00 Build 0)  -->
<svg version="1.1" id="Layer_1" xmlns="http://www.w3.org/2000/svg" xmlns:xlink="http://www.w3.org/1999/xlink" x="0px" y="0px"
	 viewBox="0 0 100 100" style="enable-background:new 0 0 100 100;" xml:space="preserve">
<style type="text/css">
	.st0{fill-rule:evenodd;clip-rule:evenodd;fill:#0D47A1;}
</style>
<g>
	<g>
		<path class="st0" d="M33.3,39L33.3,39L33.3,39L33.3,39z M29,68.3l5.4-9c-0.4-0.1-0.8-0.3-1.2-0.4L32,58.4c-0.3-0.1-0.7-0.1-1,0
			l0,0c-0.3,0.1-0.5,0.3-0.7,0.5l-0.6,0.9l-3.7,5.5c0,0.2,0,0.4,0,0.7c0.1,0.2,0.1,0.4,0.3,0.6c0.1,0.2,0.3,0.3,0.5,0.4L29,68.3
			L29,68.3z M82.8,16.7h15.7c0.6,0,1.1,0.5,1.1,1.1v43c0,0.6-0.5,1.1-1.1,1.1H82.8c-0.6,0-1.1-0.5-1.1-1.1v-1.9l-4.9,3.2l0,0
			c0.2,0.3,0.3,0.7,0.4,1.1c0.1,0.7,0,1.4-0.2,2.1l-0.3,0.8c-0.9,2.2-2,4.1-3.3,5.8c-1.3,1.7-2.9,3.3-4.8,4.8L61,82.5
			c-0.6,0.5-1.3,0.7-2.1,0.8c-0.7,0-1.5-0.1-2.1-0.5l-7-4.1c-0.2,0.4-0.5,0.7-0.8,0.9l0,0c-0.4,0.3-0.8,0.5-1.3,0.6
			c-0.5,0.1-1,0.2-1.5,0.1c-0.5-0.1-0.9-0.2-1.4-0.5l0,0L25.6,68.8c-0.5-0.3-0.9-0.6-1.2-1c-0.3-0.4-0.5-0.9-0.6-1.4
			c-0.1-0.5-0.1-1,0-1.5c0-0.2,0.1-0.4,0.2-0.6l-5.6-5v1.4c0,0.6-0.5,1.1-1.1,1.1H1.5c-0.6,0-1.1-0.5-1.1-1.1v-43
			c0-0.6,0.5-1.1,1.1-1.1h15.7c0.6,0,1.1,0.5,1.1,1.1v0.9l7.8,2.5c1,0.3,1.7,1,2.2,1.8c0.4,0.9,0.6,1.9,0.3,2.8l-0.1,0.2l9.3,0.8
			l0.1,0l18,2.1c1.5-0.4,3-0.8,4.6-1.2l11.3-2.5c-0.2-0.8,0-1.7,0.4-2.4c0.4-0.8,1.2-1.5,2.2-1.8l7.3-2.3v-0.9
			C81.7,17.2,82.2,16.7,82.8,16.7L82.8,16.7z M75.4,60.4c0.1-0.1,0.1-0.1,0.2-0.2l5.7-3.8c0.1-0.1,0.2-0.1,0.3-0.1l-9.2-29.2
			l-11.5,2.6c-1.6,0.4-3.1,0.8-4.6,1.2l0,0l0,0l-0.1,0l0,0c-0.4,0.1-0.7,0.2-1.1,0.3c-1.9,0.6-3.7,1.3-5.6,2.1l-13.8,5.7l0.6,1.2
			c0.6,1.2,1.5,2.1,2.6,2.6c1.1,0.5,2.4,0.6,3.6,0.3l13.2-3.5c0.4-0.1,0.8,0,1.1,0.3L75.4,60.4L75.4,60.4z M36.4,60.1
			c0.3,0.1,0.5,0.2,0.8,0.3c0.7,0.3,1.3,0.6,1.9,1c0.6,0.3,1.2,0.7,1.8,1.1l-5.8,9.4l-4.3-2.5L36.4,60.1L36.4,60.1z M37,73l4.5,2.6
			l5.2-8.6l-4.1-3.2L37,73L37,73z M43.4,76.6l2.5,1.4h0l0,0c0.2,0.1,0.4,0.2,0.6,0.2c0.2,0,0.4,0,0.6-0.1c0.2-0.1,0.4-0.2,0.6-0.3
			l0,0c0.1-0.1,0.3-0.3,0.4-0.5l3-5.3c0.2-0.3,0.3-0.7,0.2-1.1c-0.1-0.4-0.3-0.7-0.6-1l-2.2-1.8L43.4,76.6L43.4,76.6z M18.8,56.9
			l6.3,5.6l3.3-4.7l0,0c0.5-0.7,1.2-1.2,2-1.4l0,0l0,0c0.8-0.2,1.6-0.2,2.4,0.1l3.7,1.4c1.4,0.5,2.6,1.1,3.7,1.7
			c0.9,0.5,1.8,1.1,2.7,1.8l0,0c0.1,0,0.1,0.1,0.2,0.1c0.1,0.1,0.3,0.2,0.4,0.3l8.4,6.6c0.4,0.3,0.7,0.7,1,1.1l11.3,7.8l3-2.3
			c0.4-0.3,0.7-0.6,1.1-0.9L52.2,61.8c-0.5-0.4-0.6-1-0.2-1.5c0.4-0.5,1-0.6,1.5-0.2l16.4,12.5c0.6-0.6,1.2-1.3,1.7-2
			c0.4-0.6,0.9-1.2,1.2-1.8L58.4,56c-0.4-0.4-0.5-1.1-0.1-1.5c0.4-0.4,1.1-0.5,1.5-0.1l14,12.5c0.3-0.5,0.5-1.1,0.7-1.6l0.3-0.8
			c0.1-0.3,0.2-0.6,0.1-0.9c-0.1-0.3-0.2-0.6-0.4-0.8l-19-21L43,45.2c-1.8,0.5-3.6,0.3-5.1-0.4c-1.5-0.7-2.8-2-3.6-3.6l-1-2.2l0-0.1
			c-0.2-0.5,0-1.2,0.6-1.4l14.8-6.1c0.8-0.3,1.6-0.7,2.4-0.9l-13.5-1.6h0L27.9,28h0L18.8,56.9L18.8,56.9z M53.2,72.4
			c-0.1,0.3-0.2,0.6-0.4,0.8l-2,3.6l7,4.2c0.3,0.2,0.6,0.3,0.9,0.2c0.3,0,0.6-0.1,0.9-0.3l2.8-2.1L53.2,72.4L53.2,72.4z M18.3,51.3
			l8.2-26.2c0.1-0.4,0.1-0.9-0.1-1.2c-0.2-0.4-0.5-0.7-0.9-0.8l-7.2-2.3V51.3L18.3,51.3z M16.2,18.8H2.6v40.8h13.6v-1.4V19.4V18.8
			L16.2,18.8z M81.7,49.6V20.9L75,23c-0.4,0.1-0.7,0.4-0.9,0.8c-0.2,0.4-0.2,0.8-0.1,1.2L81.7,49.6L81.7,49.6z M83.8,56.6L83.8,56.6
			l0,3.1h13.6V18.8H83.8v0.6l0,0V56.6z"/>
	</g>
</g>
</svg>
