<?xml version="1.0" encoding="utf-8"?>
<!-- Generator: Adobe Illustrator 25.0.1, SVG Export Plug-In . SVG Version: 6.00 Build 0)  -->
<svg version="1.1" id="Layer_1" xmlns="http://www.w3.org/2000/svg" xmlns:xlink="http://www.w3.org/1999/xlink" x="0px" y="0px"
	 viewBox="0 0 100 100" style="enable-background:new 0 0 100 100;" xml:space="preserve">
<style type="text/css">
	.st0{fill-rule:evenodd;clip-rule:evenodd;fill:#0D47A1;}
</style>
<g>
	<g>
		<path class="st0" d="M83.9,60.7l15.6,15.6c0.4,0.4,0.4,1.1,0,1.6c-0.2,0.2-0.5,0.3-0.8,0.3l0,0H80.3v18.4c0,0.6-0.5,1.1-1.1,1.1
			c-0.3,0-0.6-0.1-0.8-0.3l0,0L59.9,78.9c-3.1,0.8-6.4,1.2-9.7,1.2c-2.6,0-5.1-0.3-7.6-0.7c-0.8-0.2-1.7-0.4-2.5-0.6L21.7,97.2l0,0
			c-0.2,0.2-0.5,0.3-0.8,0.3c-0.6,0-1.1-0.5-1.1-1.1V78.1H1.3l0,0c-0.3,0-0.6-0.1-0.8-0.3c-0.4-0.4-0.4-1.1,0-1.6l15.8-15.8
			c-0.8-1.4-1.5-2.8-2.1-4.3c-1-2.3-1.7-4.8-2.2-7.3c-0.5-2.5-0.7-5-0.7-7.6s0.3-5.1,0.7-7.6c0.5-2.5,1.2-4.9,2.2-7.3
			c1-2.4,2.2-4.6,3.6-6.7c1.4-2.1,3-4.1,4.8-5.9l0,0c1.8-1.8,3.8-3.4,5.9-4.8c2.1-1.4,4.4-2.6,6.7-3.6c2.3-1,4.8-1.7,7.3-2.2
			c2.5-0.5,5-0.7,7.6-0.7s5.1,0.3,7.6,0.7c2.5,0.5,5,1.2,7.3,2.2c2.4,1,4.6,2.2,6.7,3.6c2.1,1.4,4.1,3.1,5.9,4.8l0.1,0.1
			c1.8,1.8,3.4,3.7,4.8,5.8c1.4,2.1,2.6,4.4,3.6,6.7c1,2.3,1.7,4.8,2.2,7.3c0.5,2.5,0.7,5,0.7,7.6s-0.3,5.1-0.7,7.6
			c-0.5,2.5-1.2,4.9-2.2,7.3C85.5,57.7,84.7,59.2,83.9,60.7L83.9,60.7z M37.7,78l-0.3-0.1l-0.1,0L37.7,78L37.7,78z M37.3,77.9
			L37.3,77.9L37.3,77.9L37.3,77.9l-0.1,0l0,0l0,0l0,0l0,0l0,0l0,0l0,0l0,0l0,0l0,0l0,0l0,0l0,0l0,0l0,0l0,0l0,0l0,0l0,0l0,0l0,0l0,0
			l0,0l0,0l0,0l-0.1,0h0c-0.4-0.1-0.7-0.3-1.1-0.4c-2.4-1-4.6-2.2-6.7-3.6c-2.1-1.4-4.1-3-5.9-4.8l0,0l-0.1-0.1l0,0l0,0l-0.1-0.1
			l0,0l0,0l0,0l0,0l-0.1-0.1l0,0l0,0l0-0.1l0,0l0-0.1l0,0l0,0l-0.1-0.1l0,0l0,0l0,0l0,0l0-0.1l0,0l0,0l0-0.1l-0.1-0.1l-0.1-0.1l0,0
			l-0.1-0.1l0-0.1l0,0c-1-1.1-1.9-2.2-2.8-3.4l0,0l0,0l0,0l0,0c-0.1-0.2-0.3-0.4-0.4-0.6l0,0l0,0l0,0l0,0l0,0l0,0l0,0l0,0h0l0,0l0,0
			l0,0l0,0l0,0l0,0l0,0l0,0l0,0l0,0l0,0l0,0l0,0l0,0l0,0l0,0l0,0l0,0l0,0l0,0l0,0l0,0l0,0l0,0v0l0,0l0,0L4,75.8h16.8
			c0.6,0,1.1,0.5,1.1,1.1v16.8L37.7,78L37.3,77.9L37.3,77.9z M36.2,75.1c0.4,0.2,0.8,0.3,1.1,0.5l0,0l0,0l0,0h0l0,0l0.2,0.1l0,0l0,0
			l0,0l0,0l0,0l0,0h0l0,0l0,0l0,0l0,0l0,0l0,0l0,0h0l0,0l0,0l0,0l0,0l0,0l0,0l0,0l0,0h0l0,0l0,0l0,0h0l0,0l0,0l0,0l0,0l0,0l0,0l0,0
			l0,0l0,0l0,0l0,0l0,0l0,0h0l0,0l0,0l0,0l0,0l0,0l0,0l0,0l0,0l0.1,0l0,0c0.4,0.1,0.8,0.2,1.1,0.3l0.1,0h0l0,0
			c0.9,0.3,1.9,0.5,2.9,0.7c2.3,0.5,4.7,0.7,7.2,0.7c3.4,0,6.6-0.5,9.7-1.3c0,0,0.1,0,0.1,0l0,0l0.1,0l0.1,0l0,0l0.1,0l0,0l0.1,0
			l0.1,0l0.1,0l0,0l0.1,0c2.6-0.8,5.1-1.9,7.5-3.3l0.1-0.1l0.1-0.1l0.1-0.1l0,0l0.5-0.3l0,0l0.1-0.1l0.1-0.1l0,0l0.1-0.1l0,0
			l0.1-0.1l0.1-0.1l0,0l0.1-0.1l0,0l0.1,0l0.1-0.1l0,0l0.1-0.1l0.1,0l0.1,0l0.1-0.1h0l0.1-0.1l0.1,0l0.1,0l0.1-0.1l0,0l0.1-0.1
			l0.1,0l0.1,0l0.1-0.1h0l0.1-0.1l0.1,0l0.1,0l0.1-0.1l0,0l0.1-0.1l0.1-0.1l0,0l0.1-0.1l0,0l0.1-0.1l0.1-0.1l0,0l0.1-0.1l0,0
			l0.2-0.1l0,0l0.1-0.1l0,0l0.1-0.1l0.1-0.1l0,0l0.1-0.1l0,0l0.1-0.1l0.1-0.1l0,0l0.1-0.1l0.1-0.1l0.1-0.1l0,0l0.1-0.1l0,0l0.1-0.1
			l0.1-0.1l0,0l0.1-0.1l0,0l0.1-0.1l0.1-0.1l0.1-0.1l0,0l0.1-0.1l0.1-0.1l0,0l0.1-0.1l0,0l0.1-0.1l0.1-0.1l0,0l0.1-0.1l0,0l0.1-0.1
			l0.1-0.1l0,0l0.1-0.1l0.1,0l0.1-0.1l0.1-0.1h0l0.1-0.1l0.1-0.1l0.1-0.1l0.1-0.1c1-1,2-2.1,2.9-3.3c0.9-1.2,1.7-2.4,2.5-3.6l0,0
			c1-1.6,1.8-3.3,2.5-5c0.9-2.2,1.6-4.5,2.1-6.9c0.5-2.3,0.7-4.7,0.7-7.2s-0.2-4.8-0.7-7.2c-0.5-2.4-1.2-4.7-2.1-6.9
			c-0.9-2.2-2.1-4.4-3.4-6.3c-1.3-2-2.8-3.8-4.5-5.5l-0.1-0.1c-1.7-1.7-3.6-3.2-5.6-4.6c-2-1.3-4.1-2.5-6.3-3.4
			c-2.2-0.9-4.5-1.6-6.9-2.1c-2.3-0.5-4.7-0.7-7.2-0.7S45.4,4.8,43,5.3c-2.4,0.5-4.7,1.2-6.9,2.1c-2.2,0.9-4.3,2.1-6.3,3.4
			c-2,1.3-3.9,2.9-5.6,4.6v0v0c-1.7,1.7-3.2,3.6-4.6,5.6c-1.3,2-2.5,4.1-3.4,6.3c-0.9,2.2-1.6,4.5-2.1,6.9c-0.5,2.3-0.7,4.7-0.7,7.2
			s0.2,4.8,0.7,7.2c0.5,2.4,1.2,4.7,2.1,6.9c0.7,1.6,1.5,3.2,2.4,4.7l0,0l0,0l0,0.1l0,0l0,0l0,0.1v0l0,0.1l0,0l0,0l0,0.1l0,0l0,0.1
			l0,0l0,0l0,0.1l0,0l0,0l0,0.1l0,0l0,0.1l0,0l0,0l0,0.1l0,0l0,0.1l0,0l0,0l0,0.1l0,0l0,0.1l0,0l0,0l0,0.1l0,0l0,0l0,0.1l0,0l0,0.1
			l0,0l0,0l0,0.1l0,0l0,0.1l0,0l0,0l0,0.1l0,0l0,0l0,0l0,0l0,0.1l0,0l0,0l0,0.1l0,0l0,0.1l0,0l0,0l0,0.1l0,0l0,0.1l0.1,0.2l0,0
			l0.1,0.1l0,0.1v0l0.1,0.2l0,0l0.1,0.2l0,0c0.7,1,1.5,1.9,2.3,2.8l0,0l0.3,0.3l0,0l0,0l0,0l0,0l0,0l0,0l0.2,0.2l0,0l0.1,0.1l0,0
			l0,0l0.1,0v0l0,0l0,0l0,0l0,0.1l0,0l0,0l0,0l0,0l0.1,0.1l0,0l0,0l0,0l0,0l0,0.1l0,0l0,0l0,0.1l0,0v0c1.7,1.7,3.6,3.2,5.6,4.6
			C31.8,73,33.9,74.2,36.2,75.1L36.2,75.1z M23.5,34.1c-0.3,0-0.6,0.1-0.8,0.4c-0.4,0.5-0.4,1.2,0.1,1.6l13.9,12.2l-4,18
			c-0.1,0.3,0,0.6,0.1,0.9c0.3,0.5,1,0.7,1.5,0.4l15.9-9.4l15.9,9.4l0,0c0.2,0.1,0.5,0.2,0.8,0.1c0.6-0.1,1-0.7,0.8-1.3l-4-18.1
			l13.9-12.2v0c0.2-0.2,0.3-0.4,0.4-0.7c0.1-0.6-0.4-1.2-1-1.2l-18.4-1.7l-7.3-17l0,0c-0.1-0.3-0.3-0.5-0.6-0.6
			c-0.6-0.2-1.2,0-1.5,0.6l-7.4,17L23.5,34.1L23.5,34.1z M42.7,34.5l-16.5,1.5l12.5,11l0,0c0.3,0.3,0.4,0.7,0.3,1.1l-3.6,16.2
			l14.3-8.4c0.3-0.2,0.8-0.2,1.1,0L65,64.4l-3.6-16.1c-0.1-0.4,0-0.9,0.3-1.2l12.5-11l-16.4-1.6c-0.4,0-0.8-0.3-1-0.7l-6.6-15.2
			l-6.6,15.2C43.5,34.2,43.1,34.5,42.7,34.5L42.7,34.5z M72.9,72.8c-0.2,0.1-0.4,0.3-0.6,0.4l0,0l-0.1,0l-0.1,0
			c-0.2,0.2-0.4,0.3-0.6,0.4l-0.1,0l-0.1,0l-0.1,0.1l0,0L71.1,74L71,74.1l-0.1,0.1l0,0l-0.1,0.1l-0.1,0.1l-0.1,0l-0.1,0.1l0,0
			l-0.1,0.1l-0.1,0.1l0,0L70,74.7l0,0l-0.1,0.1l-0.1,0.1l0,0l-0.1,0.1l-0.1,0l-0.1,0L69.4,75l0,0l-0.1,0l-0.1,0.1l0,0l-0.1,0
			L69,75.3l0,0l-0.1,0l-0.1,0.1l0,0l-0.1,0.1l-0.1,0.1l0,0l-0.1,0.1l-0.1,0.1l0,0l-0.1,0.1l-0.1,0l0,0L68,75.8l-0.1,0l0,0l-0.1,0.1
			l-0.1,0l0,0L67.5,76l-0.1,0l-0.1,0l-0.1,0.1l0,0l-0.1,0l-0.1,0.1l0,0l-0.1,0l-0.1,0.1l0,0l-0.1,0l-0.1,0.1l0,0l-0.1,0l-0.1,0.1v0
			l-0.1,0l-0.1,0l0,0L66,76.7l-0.1,0l0,0l-0.1,0.1l-0.1,0l0,0l-0.1,0.1l-0.1,0l-0.1,0l-0.3,0.1l-0.1,0l-0.1,0l0,0l-0.1,0l-0.2,0.1
			l-0.1,0l0,0l-0.1,0c-0.6,0.2-1.3,0.5-1.9,0.7L78,93.8V77c0-0.6,0.5-1.1,1.1-1.1H96L82.7,62.6c-0.6,0.9-1.2,1.8-1.9,2.6
			c-1,1.2-2,2.4-3.1,3.5l-0.1,0.1l-0.1,0.1l-0.1,0.1L77.4,69l0,0l-0.1,0.1l-0.1,0.1l-0.1,0L77,69.4l0,0l-0.1,0.1l-0.1,0.1l0,0
			l-0.1,0.1l-0.1,0.1l-0.1,0.1l0,0L76.3,70l0,0l-0.1,0.1l-0.1,0.1l0,0L76,70.3l0,0l-0.1,0.1l-0.1,0.1l0,0l-0.1,0.1l0,0l-0.1,0.1
			l-0.1,0.1l0,0l-0.1,0.1l0,0L75.1,71l-0.1,0.1l0,0l-0.1,0.1l0,0l-0.1,0.1l-0.1,0.1l-0.1,0.1l-0.1,0.1l-0.1,0.1l0,0l-0.1,0.1
			L74,71.9L73.9,72l0,0l-0.1,0.1l0,0l-0.1,0.1l-0.3,0.2l0,0l-0.1,0.1L73,72.7L72.9,72.8L72.9,72.8z"/>
	</g>
</g>
</svg>
