<?xml version="1.0" encoding="utf-8"?>
<!-- Generator: Adobe Illustrator 25.0.1, SVG Export Plug-In . SVG Version: 6.00 Build 0)  -->
<svg version="1.1" id="Layer_1" xmlns="http://www.w3.org/2000/svg" xmlns:xlink="http://www.w3.org/1999/xlink" x="0px" y="0px"
	 viewBox="0 0 100 100" style="enable-background:new 0 0 100 100;" xml:space="preserve">
<style type="text/css">
	.st0{fill-rule:evenodd;clip-rule:evenodd;fill:#0D47A1;}
</style>
<path class="st0" d="M29.5,2.2h68.7c0.6,0,1,0.5,1,1.1v16.2v16.2v16.2v16.2v16.2c0,0.6-0.5,1-1,1H65.6c-0.5,0.5-1,1-1.5,1.5
	c-6.7,6.7-16,10.9-26.3,10.9c-10.3,0-19.5-4.2-26.3-10.9c-6.7-6.7-10.9-16-10.9-26.3c0-10.3,4.2-19.5,10.9-26.3
	c4.6-4.6,10.4-8,16.8-9.7v-5.3V3.2C28.5,2.6,28.9,2.2,29.5,2.2L29.5,2.2z M37.9,87.1c3.6,0,7-0.7,10.1-2c3.2-1.3,6.1-3.3,8.6-5.7
	c2.4-2.4,4.4-5.4,5.7-8.6c1.3-3.1,2-6.5,2-10.1c0-3.6-0.7-7-2-10.1C61,47.3,59,44.4,56.6,42c-2.4-2.4-5.4-4.4-8.6-5.7
	c-3.1-1.3-6.5-2-10.1-2s-7,0.7-10.1,2c-3.2,1.3-6.1,3.3-8.6,5.7c-2.4,2.4-4.4,5.4-5.7,8.6c-1.3,3.1-2,6.5-2,10.1c0,3.6,0.7,7,2,10.1
	c1.3,3.2,3.3,6.1,5.7,8.6c2.4,2.4,5.4,4.4,8.6,5.7C30.9,86.4,34.3,87.1,37.9,87.1L37.9,87.1z M48.8,87.1c3.5-1.4,6.6-3.6,9.3-6.2
	c2.6-2.6,4.8-5.8,6.2-9.3c1.4-3.4,2.2-7.1,2.2-10.9c0-3.9-0.8-7.5-2.2-10.9c-1.5-3.5-3.6-6.6-6.2-9.3c-2.6-2.6-5.8-4.8-9.3-6.2
	c-3.4-1.4-7.1-2.2-10.9-2.2c-3.9,0-7.6,0.8-10.9,2.2c-3.5,1.4-6.6,3.6-9.3,6.2c-2.6,2.6-4.7,5.8-6.2,9.3c-1.4,3.4-2.2,7.1-2.2,10.9
	c0,3.9,0.8,7.5,2.2,10.9c1.4,3.5,3.6,6.6,6.2,9.3c2.6,2.6,5.8,4.7,9.3,6.2c3.4,1.4,7.1,2.2,10.9,2.2C41.7,89.2,45.4,88.5,48.8,87.1
	L48.8,87.1z M64.3,83.7L64.3,83.7L64.3,83.7L64.3,83.7L64.3,83.7L64.3,83.7L64.3,83.7L64.3,83.7L64.3,83.7l0.1-0.1l0,0l0,0l0,0l0,0
	l0,0h0l0,0l0,0c1.8-2.2,3.4-4.5,4.7-7.1c1.9-3.7,3-7.8,3.5-12c0.1-1.2,0.2-2.4,0.2-3.6c0-1.5-0.1-2.9-0.3-4.3
	c-0.2-1.4-0.4-2.8-0.8-4.2c0,0,0-0.1,0-0.1c-0.7-3-1.9-5.8-3.3-8.4c-1.5-2.7-3.3-5.1-5.4-7.3c0,0-0.1-0.1-0.1-0.1
	c-3.2-3.4-7.2-6.1-11.5-7.9c-4.2-1.8-8.9-2.8-13.7-2.8c-1.4,0-2.8,0.1-4.1,0.2c-1.4,0.2-2.7,0.4-4,0.7l0,0
	c-6.4,1.5-12.1,4.8-16.6,9.3C6.8,42.2,2.8,51,2.8,60.7c0,9.7,3.9,18.4,10.3,24.8c6.3,6.3,15.1,10.3,24.8,10.3
	c9.7,0,18.4-3.9,24.8-10.3C63.2,84.9,63.8,84.3,64.3,83.7L64.3,83.7z M36.8,40.9v3h-5c-1.7,0-3.3,0.7-4.4,1.8
	c-1.1,1.1-1.8,2.7-1.8,4.4v5.2c0,3.5,2.8,6.3,6.3,6.3h5v13.6H26.6c-0.6,0-1,0.5-1,1c0,0.6,0.5,1.1,1,1.1h10.2v3c0,0.6,0.5,1.1,1,1.1
	s1-0.5,1-1.1v-3h5c3.5,0,6.3-2.8,6.3-6.3v-5.2c0-1.7-0.7-3.3-1.8-4.4v0c-1.1-1.1-2.7-1.8-4.4-1.8h-5V46h8.3c0.6,0,1-0.5,1-1.1
	c0-0.6-0.5-1-1-1h-8.3v-3c0-0.6-0.5-1-1-1S36.8,40.3,36.8,40.9L36.8,40.9z M38.9,61.7v13.6h5c2.3,0,4.2-1.9,4.2-4.2v-5.2
	c0-1.2-0.5-2.2-1.2-3l0,0c-0.8-0.8-1.8-1.2-3-1.2H38.9L38.9,61.7z M36.8,59.6V46h-5c-1.2,0-2.2,0.5-3,1.2c-0.8,0.8-1.2,1.8-1.2,3
	v5.2c0,2.3,1.9,4.2,4.2,4.2H36.8L36.8,59.6z M97.2,69.2H74.1c-0.7,2.8-1.6,5.5-2.9,8c-1.1,2.2-2.3,4.2-3.8,6.1h29.8V69.2L97.2,69.2z
	 M97.2,53H74.2c0.2,1,0.4,2.1,0.5,3.2c0.2,1.5,0.3,3,0.3,4.6c0,1.3-0.1,2.6-0.2,3.9c-0.1,0.9-0.2,1.7-0.4,2.5h22.7V53L97.2,53z
	 M97.2,36.7H66.3c1.6,1.8,2.9,3.9,4.1,6c1.4,2.6,2.5,5.3,3.3,8.1h23.4V36.7L97.2,36.7z M97.2,20.5H30.6v3.8l0,0c1-0.2,2-0.4,3-0.5
	c1.4-0.2,2.9-0.3,4.3-0.3c5.2,0,10.1,1.1,14.5,3c4.5,1.9,8.6,4.7,11.9,8.1h32.8V20.5L97.2,20.5z M97.2,4.3H30.6v14.1h66.6V4.3z"/>
</svg>
